HIERARCHY
ROOT Hips
{
	OFFSET 0.000000 0.000000 0.000000
	CHANNELS 6 Xposition Yposition Zposition Zrotation Xrotation Yrotation
	JOINT Spine
	{
		OFFSET 0.000000 -0.000001 7.447072
		CHANNELS 6 Xposition Yposition Zposition Zrotation Xrotation Yrotation
		JOINT Spine1
		{
			OFFSET 0.000000 -0.000003 20.322411
			CHANNELS 6 Xposition Yposition Zposition Zrotation Xrotation Yrotation
			JOINT Neck
			{
				OFFSET 0.000000 -0.000004 22.138769
				CHANNELS 6 Xposition Yposition Zposition Zrotation Xrotation Yrotation
				JOINT Head
				{
					OFFSET 0.000000 -1.816361 14.076782
					CHANNELS 6 Xposition Yposition Zposition Zrotation Xrotation Yrotation
					End Site
					{
						OFFSET 0.000000 -0.000003 18.163588
					}
				}
			}
			JOINT LeftShoulder
			{
				OFFSET 3.657673 0.480121 17.875921
				CHANNELS 6 Xposition Yposition Zposition Zrotation Xrotation Yrotation
				JOINT LeftArm
				{
					OFFSET 13.051597 0.000000 0.000000
					CHANNELS 6 Xposition Yposition Zposition Zrotation Xrotation Yrotation
					JOINT LeftForeArm
					{
						OFFSET 25.592106 0.000000 0.000000
						CHANNELS 6 Xposition Yposition Zposition Zrotation Xrotation Yrotation
						JOINT LeftHand
						{
							OFFSET 23.784546 0.000000 0.000000
							CHANNELS 6 Xposition Yposition Zposition Zrotation Xrotation Yrotation
							End Site
							{
								OFFSET 13.622693 0.000000 0.000000
							}
						}
					}
				}
			}
			JOINT RightShoulder
			{
				OFFSET -3.607208 0.480121 17.875921
				CHANNELS 6 Xposition Yposition Zposition Zrotation Xrotation Yrotation
				JOINT RightArm
				{
					OFFSET -13.051593 0.000000 0.000000
					CHANNELS 6 Xposition Yposition Zposition Zrotation Xrotation Yrotation
					JOINT RightForeArm
					{
						OFFSET -25.592108 0.000000 0.000000
						CHANNELS 6 Xposition Yposition Zposition Zrotation Xrotation Yrotation
						JOINT RightHand
						{
							OFFSET -23.784546 0.000000 0.000000
							CHANNELS 6 Xposition Yposition Zposition Zrotation Xrotation Yrotation
							End Site
							{
								OFFSET -13.622693 0.000000 0.000000
							}
						}
					}
				}
			}
		}
	}
	JOINT LeftUpLeg
	{
		OFFSET 9.081795 0.000000 0.000000
		CHANNELS 6 Xposition Yposition Zposition Zrotation Xrotation Yrotation
		JOINT LeftLeg
		{
			OFFSET 0.000000 0.000006 -38.194870
			CHANNELS 6 Xposition Yposition Zposition Zrotation Xrotation Yrotation
			JOINT LeftFoot
			{
				OFFSET 0.000000 0.000007 -40.043045
				CHANNELS 6 Xposition Yposition Zposition Zrotation Xrotation Yrotation
				JOINT LeftToeBase
				{
					OFFSET 0.000000 -13.622693 -5.903168
					CHANNELS 6 Xposition Yposition Zposition Zrotation Xrotation Yrotation
					End Site
					{
						OFFSET 0.000000 -3.632718 0.000000
					}
				}
			}
		}
	}
	JOINT RightUpLeg
	{
		OFFSET -9.081795 0.000000 0.000000
		CHANNELS 6 Xposition Yposition Zposition Zrotation Xrotation Yrotation
		JOINT RightLeg
		{
			OFFSET 0.000000 0.000006 -38.194870
			CHANNELS 6 Xposition Yposition Zposition Zrotation Xrotation Yrotation
			JOINT RightFoot
			{
				OFFSET 0.000000 0.000007 -40.043045
				CHANNELS 6 Xposition Yposition Zposition Zrotation Xrotation Yrotation
				JOINT RightToeBase
				{
					OFFSET 0.000000 -13.622693 -5.903168
					CHANNELS 6 Xposition Yposition Zposition Zrotation Xrotation Yrotation
					End Site
					{
						OFFSET 0.000000 -3.632718 0.000000
					}
				}
			}
		}
	}
}
MOTION
Frames: 7
Frame Time: 0.041667
111.555626 4.524494 80.440056 206.954786 -11.369044 3.764701 0.000001 -0.000001 7.447067 -2.256701 -12.630517 -5.174110 0.000002 -0.000005 20.322407 -0.405613 19.740963 -1.010180 -0.000004 -0.000005 22.138786 10.400904 11.030708 -7.589806 -0.000001 -1.816355 14.076770 11.660957 6.572725 11.639913 3.657674 0.480123 17.875929 -0.272344 -8.356076 -17.233105 13.051590 -0.000001 0.000000 -17.533442 -3.936491 25.359092 25.592102 -0.000003 0.000028 -20.720644 -10.245837 -14.585794 23.784548 0.000003 -0.000009 -1.363997 -12.928277 4.650812 -3.607222 0.480126 17.875937 -5.880614 -5.686436 16.077604 -13.051616 0.000002 0.000006 26.378442 19.339317 -21.156277 -25.592085 -0.000004 0.000016 80.731429 44.047548 48.117450 -23.784542 -0.000015 0.000016 5.249467 4.636217 26.857485 9.081798 -0.000000 0.000005 -15.870243 8.150918 8.219802 -0.000003 0.000004 -38.194885 169.861737 160.559005 -174.864154 -0.000001 0.000006 -40.043041 7.736790 -4.285606 -11.749724 0.000010 -13.622693 -5.903167 0.000000 -0.000001 0.000000 -9.081793 0.000003 0.000003 36.572494 -73.229279 31.821650 -0.000009 -0.000005 -38.194870 3.870374 67.200483 -58.560485 -0.000004 0.000005 -40.043045 -26.131844 3.063338 -5.151556 0.000002 -13.622699 -5.903173 0.000000 -0.000002 0.000000 
111.357376 4.620261 80.387596 207.719317 -11.116734 3.498783 0.000019 -0.000004 7.447080 -2.369507 -12.767638 -5.022881 0.000006 -0.000011 20.322401 -0.474636 19.574941 -0.856113 -0.000023 -0.000001 22.138756 10.390824 10.991770 -7.509370 -0.000006 -1.816351 14.076789 11.642043 6.621964 11.551768 3.657654 0.480120 17.875912 -0.259870 -8.329604 -17.208431 13.051600 0.000005 -0.000004 -17.619081 -3.951613 25.374631 25.592102 0.000001 -0.000002 -20.740027 -10.315352 -14.628144 23.784542 -0.000002 -0.000002 -1.316019 -13.005154 4.627802 -3.607228 0.480125 17.875904 -5.981447 -5.669305 16.091249 -13.051616 -0.000004 0.000014 26.222285 19.107603 -21.073662 -25.592100 -0.000008 0.000002 81.185548 44.030241 47.674013 -23.784544 -0.000002 -0.000000 5.217201 4.724475 26.824222 9.081817 -0.000004 0.000011 -16.012798 7.904008 8.439542 0.000008 0.000005 -38.194866 169.770021 160.514705 -174.771427 0.000011 0.000004 -40.043041 7.241110 -4.253002 -11.764871 0.000001 -13.622696 -5.903167 -0.000000 -0.000002 -0.000000 -9.081792 0.000002 0.000003 34.501123 -72.804851 29.584182 -0.000003 0.000002 -38.194866 2.397902 66.313446 -56.710542 0.000015 0.000005 -40.043045 -25.745170 3.383220 -5.626693 0.000001 -13.622687 -5.903167 0.000000 0.000001 0.000003 
111.153542 4.728752 80.333618 208.512425 -10.913187 3.253997 0.000002 0.000002 7.447066 -2.484026 -12.884532 -4.879492 -0.000004 -0.000001 20.322409 -0.544518 19.437767 -0.696561 -0.000025 -0.000000 22.138784 10.331892 11.029267 -7.484867 0.000017 -1.816385 14.076790 11.585534 6.554657 11.580359 3.657669 0.480120 17.875921 -0.283609 -8.277652 -17.229466 13.051610 -0.000003 0.000011 -17.650283 -4.133655 25.415504 25.592110 0.000001 -0.000011 -20.706053 -10.292771 -14.611421 23.784540 0.000003 0.000003 -1.339901 -12.976132 4.615042 -3.607214 0.480117 17.875933 -6.053469 -5.648755 16.069475 -13.051592 -0.000001 -0.000006 26.010808 18.906039 -20.976855 -25.592100 -0.000000 0.000010 81.586063 44.008736 47.297557 -23.784540 -0.000023 0.000011 5.254549 4.796387 26.822539 9.081794 0.000004 -0.000010 -15.988511 7.732624 8.668062 0.000007 0.000003 -38.194878 169.616943 160.424888 -174.779637 0.000002 0.000004 -40.043041 6.662111 -4.220028 -11.810709 0.000001 -13.622693 -5.903167 0.000000 -0.000001 -0.000000 -9.081789 0.000001 -0.000008 32.534356 -72.331184 27.434273 0.000010 0.000010 -38.194874 0.719769 65.585088 -54.602458 0.000002 0.000005 -40.043056 -25.237042 3.756365 -6.090239 -0.000001 -13.622685 -5.903167 0.000000 -0.000001 0.000000 
110.950371 4.828023 80.266876 209.282173 -10.693895 2.959217 0.000007 0.000000 7.447066 -2.554304 -12.989007 -4.677300 0.000008 -0.000001 20.322409 -0.598418 19.276542 -0.557232 -0.000012 -0.000005 22.138760 10.283251 11.025799 -7.459336 0.000001 -1.816365 14.076775 11.541256 6.510180 11.606581 3.657670 0.480120 17.875916 -0.352789 -8.266960 -17.217645 13.051600 0.000007 -0.000008 -17.641591 -4.263997 25.398234 25.592108 0.000002 0.000006 -20.672582 -10.255096 -14.550787 23.784550 -0.000006 0.000005 -1.340065 -12.923560 4.618204 -3.607211 0.480119 17.875914 -6.145782 -5.673275 16.075726 -13.051597 -0.000003 -0.000009 25.843189 18.758384 -20.950413 -25.592083 -0.000016 -0.000007 81.935004 44.014815 46.989632 -23.784534 0.000001 0.000006 5.202395 4.850983 26.812978 9.081800 0.000001 -0.000007 -16.057966 7.526203 8.904121 -0.000009 0.000004 -38.194874 169.806371 160.361299 -174.792587 0.000004 0.000004 -40.043041 5.832859 -4.180754 -11.907065 0.000010 -13.622695 -5.903168 0.000001 -0.000000 -0.000001 -9.081801 0.000004 -0.000004 30.833561 -71.852969 25.532967 0.000002 -0.000001 -38.194866 -0.576190 64.776326 -52.749872 -0.000004 0.000010 -40.043030 -24.784702 4.043130 -6.289108 0.000003 -13.622691 -5.903175 -0.000001 0.000003 -0.000003 
110.740089 4.931953 80.207611 210.102015 -10.494817 2.732091 0.000006 -0.000001 7.447088 -2.692861 -13.107081 -4.578248 0.000001 0.000002 20.322412 -0.680673 19.181499 -0.357807 -0.000005 -0.000010 22.138765 10.262946 10.963401 -7.402283 0.000000 -1.816362 14.076777 11.522072 6.492882 11.549747 3.657673 0.480117 17.875912 -0.336363 -8.224339 -17.233221 13.051615 0.000008 0.000004 -17.786574 -4.235786 25.428238 25.592112 0.000002 0.000009 -20.682315 -10.325689 -14.651770 23.784550 -0.000005 -0.000003 -1.291580 -13.010937 4.602175 -3.607216 0.480117 17.875921 -6.202644 -5.683202 16.083410 -13.051600 -0.000004 -0.000010 25.612981 18.501649 -20.919326 -25.592108 -0.000010 -0.000004 82.403330 44.006212 46.545178 -23.784529 -0.000003 0.000019 5.143194 4.948595 26.886189 9.081805 -0.000001 0.000006 -16.148329 7.438950 9.069439 -0.000006 0.000004 -38.194878 169.626122 160.373142 -174.688003 0.000006 0.000005 -40.043037 5.300975 -4.249727 -12.060436 0.000010 -13.622691 -5.903168 -0.000000 0.000001 -0.000000 -9.081784 0.000002 0.000013 29.106749 -71.277839 23.642679 0.000020 -0.000003 -38.194885 -2.069869 64.007048 -50.763165 -0.000001 0.000008 -40.043041 -24.266018 4.320842 -6.507167 0.000001 -13.622693 -5.903163 0.000000 0.000002 -0.000004 
110.529198 5.057770 80.145073 210.968875 -10.317618 2.527643 0.000005 0.000003 7.447080 -2.834404 -13.227683 -4.389316 -0.000007 -0.000004 20.322416 -0.742491 19.102670 -0.304047 -0.000014 0.000003 22.138777 10.212587 10.923518 -7.338403 0.000011 -1.816371 14.076789 11.474549 6.450863 11.527619 3.657668 0.480125 17.875935 -0.376456 -8.216367 -17.210362 13.051597 0.000007 -0.000014 -17.842295 -4.318729 25.447099 25.592110 -0.000009 0.000010 -20.680804 -10.321232 -14.656882 23.784548 0.000000 0.000006 -1.308103 -13.007405 4.555464 -3.607210 0.480126 17.875917 -6.353719 -5.642576 16.074799 -13.051589 0.000000 0.000003 25.556379 18.358106 -20.860537 -25.592108 0.000000 0.000004 82.854771 43.802587 46.349565 -23.784540 -0.000007 0.000008 5.785927 4.630114 26.360048 9.081798 0.000004 0.000006 -16.296558 7.351918 9.251403 -0.000006 0.000008 -38.194874 169.581863 160.382349 -174.670244 -0.000000 0.000006 -40.043045 4.653424 -4.257127 -12.141672 0.000005 -13.622693 -5.903167 0.000001 -0.000002 0.000000 -9.081790 -0.000002 0.000002 27.381923 -70.671544 21.738756 -0.000007 0.000009 -38.194874 -3.130781 63.187105 -48.969140 0.000007 0.000002 -40.043053 -23.595828 4.498245 -6.942788 -0.000002 -13.622684 -5.903175 0.000001 0.000005 0.000001 
110.314842 5.156927 80.072777 211.769018 -10.104146 2.289900 0.000004 -0.000000 7.447062 -2.934758 -13.358495 -4.275041 0.000000 -0.000006 20.322409 -0.810467 19.019731 -0.113965 0.000003 -0.000007 22.138769 10.168562 10.866875 -7.334364 0.000015 -1.816368 14.076759 11.443068 6.393853 11.578865 3.657671 0.480122 17.875929 -0.413440 -8.176028 -17.228971 13.051589 -0.000001 -0.000008 -17.865547 -4.476423 25.444582 25.592112 0.000002 0.000029 -20.674293 -10.282926 -14.649523 23.784540 0.000001 0.000000 -1.336611 -12.968562 4.571879 -3.607216 0.480119 17.875908 -6.445860 -5.630251 16.063365 -13.051584 -0.000005 -0.000004 25.334239 18.023397 -20.813627 -25.592104 0.000007 0.000020 83.259234 43.815766 45.898823 -23.784540 -0.000005 0.000012 5.616990 4.805638 26.474867 9.081787 0.000004 -0.000007 -16.314100 7.203722 9.433975 0.000010 0.000009 -38.194874 169.217732 160.365342 -174.535471 0.000012 0.000006 -40.043049 4.273569 -4.290011 -12.262102 0.000011 -13.622691 -5.903168 0.000000 0.000002 -0.000001 -9.081795 0.000001 -0.000015 25.839905 -70.112636 19.971328 0.000002 0.000007 -38.194881 -4.299105 62.357284 -47.015027 0.000009 0.000012 -40.043037 -23.173065 4.786380 -7.202960 -0.000003 -13.622691 -5.903156 -0.000002 0.000002 0.000001 
